<svg width="82" height="75" viewBox="0 0 82 75" fill="none" xmlns="http://www.w3.org/2000/svg">
<path d="M49.176 7.16308L44.2295 6.20801L41.3564 21.0885L46.3028 22.0435L49.176 7.16308Z" fill="#333333"/>
<path d="M67.8134 19.4913L55.2883 27.9873L58.1088 32.1699L70.6339 23.6739L67.8134 19.4913Z" fill="#333333"/>
<path d="M75.1034 45.6118L60.2639 42.7466L59.3062 47.7066L74.1457 50.5718L75.1034 45.6118Z" fill="#333333"/>
<path d="M22.3424 10.712L18.1675 13.5439L26.6293 26.0921L30.8042 23.2602L22.3424 10.712Z" fill="#333333"/>
<path d="M20.6915 35.106L5.85156 32.2407L4.89388 37.2007L19.7338 40.066L20.6915 35.106Z" fill="#333333"/>
<path d="M21.8888 50.6427L9.36377 59.1387L12.1843 63.3213L24.7093 54.8253L21.8888 50.6427Z" fill="#333333"/>
</svg>
